# xmcd
#
# Track frame offsets: 
#        150
#        13305
#        28118
#        42816
#        58548
#        72362
#        86979
#        97375
#        109671
#        120953
#        138417
#        153988
#        167422
#        184823
#
# Disc length: 2640 seconds
#
# Revision: 0
# Processed by: cddbd v1.5.1PL0 Copyright (c) Steve Scherf et al.
# Submitted via: ExactAudioCopy v0.95a4
#
DISCID=bd0a4e0e
DTITLE=Luis mariano II - Latinos de Oro
DYEAR=2000
DGENRE=Latin
TTITLE0=Santa Maria
TTITLE1=Dos Cruces
TTITLE2=Zambra
TTITLE3=Violetas Imperiales
TTITLE4=Ole torero
TTITLE5=Doce cascabeles
TTITLE6=Un poco mas
TTITLE7=Escuchame
TTITLE8=Gitana
TTITLE9=Mexico
TTITLE10=Acapulco
TTITLE11=Bulerias de Figaro
TTITLE12=Ruiseñor
TTITLE13=Acercate mas
EXTD=
EXTT0=
EXTT1=
EXTT2=
EXTT3=
EXTT4=
EXTT5=
EXTT6=
EXTT7=
EXTT8=
EXTT9=
EXTT10=
EXTT11=
EXTT12=
EXTT13=
PLAYORDER=
